<?xml version="1.0" encoding="iso-8859-1"?>
<!-- Uploaded to: SVG Repo, www.svgrepo.com, Generator: SVG Repo Mixer Tools -->
<svg version="1.1" id="Layer_1" xmlns="http://www.w3.org/2000/svg" xmlns:xlink="http://www.w3.org/1999/xlink" 
	 viewBox="0 0 512 512" xml:space="preserve">
<path style="fill:#F63341;" d="M504.026,192.375C475.738,81.771,375.42,0,256,0C114.616,0,0,114.616,0,256
	c0,119.42,81.771,219.738,192.375,248.026L504.026,192.375z"/>
<path style="fill:#A72B1A;" d="M512,256c0-21.965-2.77-43.282-7.974-63.625l-69.939-69.94l-62.964,141.667L77.913,389.565
	l114.461,114.461C212.718,509.23,234.035,512,256,512C397.385,512,512,397.385,512,256z"/>
<polygon style="fill:#C3C9C8;" points="258.226,278.261 77.913,244.87 77.913,144.696 222.609,211.478 "/>
<g>
	<polygon style="fill:#B0B7B6;" points="400.696,267.13 222.609,267.13 222.609,144.696 367.304,211.478 	"/>
	<polygon style="fill:#B0B7B6;" points="77.913,256 77.913,389.565 222.609,389.565 258.226,256 	"/>
</g>
<polygon style="fill:#9CA5A3;" points="222.609,256 222.609,389.565 244.87,389.565 290.504,378.435 345.043,389.565 
	367.304,389.565 400.696,256 "/>
<polygon style="fill:#889391;" points="77.913,233.739 77.913,256 222.609,256 245.91,244.87 224.835,233.739 "/>
<rect x="222.609" y="233.739" style="fill:#616F6D;" width="178.087" height="22.261"/>
<polygon style="fill:#394B48;" points="244.87,278.261 244.87,367.304 290.504,378.435 345.043,367.304 345.043,278.261 "/>
<rect x="244.87" y="367.304" style="fill:#263230;" width="100.174" height="22.261"/>
<g>
	<rect x="100.174" y="278.261" style="fill:#FFFFFF;" width="50.087" height="44.522"/>
	<rect x="172.522" y="278.261" style="fill:#FFFFFF;" width="50.087" height="44.522"/>
</g>
<polygon style="fill:#4C6460;" points="367.304,122.435 367.304,144.696 400.696,162.504 400.696,122.435 "/>
<polygon style="fill:#263230;" points="400.696,122.435 400.696,162.504 434.087,144.696 434.087,122.435 "/>
<rect x="367.304" y="144.696" style="fill:#889391;" width="33.391" height="244.87"/>
<rect x="400.696" y="144.696" style="fill:#616F6D;" width="33.391" height="244.87"/>
</svg>